# xmcd
#
# Track frame offsets: 
#        150
#        15747
#        28690
#        45781
#        61379
#        79374
#        96744
#        109731
#        134066
#        147294
#        163534
#        185177
#        203338
#        253371
#        276228
#        298053
#        314580
#
# Disc length: 4778 seconds
#
# Revision: 0
# Processed by: cddbd v1.5.2PL0 Copyright (c) Steve Scherf et al.
# Submitted via: ExactAudioCopy v1.3
#
DISCID=0a12a811
DTITLE=Various Artist - Blues - Golden Age '60s -'70s  vol.06  CD1
DYEAR=2017
DGENRE=Rock
TTITLE0=Doobie Brothers (1973) - Long Train Runnin'
TTITLE1=Bad Company (1976) - Fade Away
TTITLE2=Little Feat (1979) - Perfect Imperfection
TTITLE3=Lynyrd Skynyrd (1977) - I Know A Little
TTITLE4=Canned Heat (1970) - My Crime
TTITLE5=Climax Chicago (1972) - You Make Me Sick
TTITLE6=Juicy Luicy (1970) - That's Woman's Got Something
TTITLE7=Joe Cocker (1976) - Catfish
TTITLE8=Fleetwood Mac (1968) - I Loved Another Woman
TTITLE9=John Mayall and The Bluesbreakers (1966) - All Your Love
TTITLE10=ZZ Top (1979) - Cheap Sunglasses
TTITLE11=Rory Gallagher (1971) - Gypsy Woman
TTITLE12=Creedence Clearwater Revival (1969) - I Heard It Through The 
TTITLE12=Grapevine
TTITLE13=Ac-Dc (1975) - Rock 'N' Roll Singer
TTITLE14=Ray Owen (1971) - Voodoo Child
TTITLE15=Ted Nugent (1977) - Cat Scratch Fever
TTITLE16=Nazareth (1975) - Please Don't Judas Me
EXTD=
EXTT0=
EXTT1=
EXTT2=
EXTT3=
EXTT4=
EXTT5=
EXTT6=
EXTT7=
EXTT8=
EXTT9=
EXTT10=
EXTT11=
EXTT12=
EXTT13=
EXTT14=
EXTT15=
EXTT16=
PLAYORDER=
